<svg width="112" height="80" viewBox="0 0 112 80" xmlns="http://www.w3.org/2000/svg">
    <g fill="none" fill-rule="evenodd">
        <path d="M2.614 69.696c.234 0 .43.01.587.03.157.02.294.061.411.125.118.064.23.152.338.265.107.113.23.263.367.449l5.462 7.183c.039.069.103.103.191.103h.132c.078 0 .118-.05.118-.147V70.02c0-.216.107-.324.323-.324h1.541c.216 0 .323.108.323.324v8.449c0 .599-.107 1.004-.323 1.215-.215.21-.548.316-.998.316H9.823c-.226 0-.413-.01-.565-.03a1.256 1.256 0 0 1-.404-.117 1.344 1.344 0 0 1-.345-.258 4.332 4.332 0 0 1-.39-.463l-5.475-7.183c-.06-.07-.123-.103-.192-.103H2.32c-.078 0-.117.049-.117.147v7.683c0 .216-.108.324-.323.324H.338C.113 80 0 79.892 0 79.676v-8.448c0-.6.108-1.004.323-1.215.216-.211.549-.317.999-.317h1.292zM24.814 69.696c.225 0 .338.108.338.324v1.399c0 .216-.113.324-.338.324h-6.416c-.382 0-.698.032-.948.095-.249.064-.45.172-.601.324a1.234 1.234 0 0 0-.316.618c-.058.26-.088.582-.088.964v.147h8.295c.216 0 .324.108.324.324v1.163c0 .216-.108.324-.324.324h-8.295v.25c0 .383.03.704.088.964.059.26.163.466.316.619.151.152.352.26.601.324.25.063.566.095.948.095h6.416c.225 0 .338.108.338.324v1.398c0 .216-.113.324-.338.324h-6.46c-.745 0-1.376-.068-1.894-.206-.52-.137-.943-.361-1.27-.67-.328-.31-.569-.711-.72-1.207-.152-.495-.228-1.096-.228-1.803v-2.532c0-.706.076-1.304.228-1.795.151-.491.392-.891.72-1.2.327-.31.75-.535 1.27-.677.518-.142 1.15-.214 1.893-.214h6.461zM28.734 69.696c.216 0 .323.108.323.324v5.873c0 .393.032.72.096.98.063.26.169.465.315.617.147.153.346.26.595.324.25.064.566.096.947.096h4.067c.382 0 .698-.032.947-.096.25-.063.448-.171.595-.324.146-.152.25-.358.308-.618.059-.26.089-.586.089-.979V70.02c0-.216.107-.324.322-.324h1.601c.215 0 .322.108.322.324v6.094c0 .707-.073 1.308-.22 1.803-.146.496-.384.898-.712 1.207-.328.309-.754.533-1.277.67-.524.138-1.158.206-1.902.206h-4.228c-.744 0-1.376-.068-1.894-.206-.52-.137-.942-.361-1.27-.67-.329-.31-.568-.711-.72-1.207-.151-.495-.227-1.096-.227-1.803V70.02c0-.216.112-.324.338-.324h1.585zM43.431 74.951h5.624c.5 0 .852-.108 1.058-.324.205-.215.307-.544.307-.986v-.618c0-.441-.102-.77-.307-.986-.206-.216-.559-.324-1.058-.324h-5.433c-.127 0-.19.059-.19.177v3.061zm6.08-5.254c1.125 0 1.932.255 2.422.765.49.51.734 1.266.734 2.267v.839c0 .844-.171 1.511-.514 2.001-.342.491-.9.805-1.674.943l2.51 3.12c.05.049.065.123.045.22-.02.099-.098.148-.235.148h-1.894c-.127 0-.216-.015-.264-.044a.512.512 0 0 1-.147-.147l-2.32-3.062h-4.743v2.929c0 .216-.107.324-.323.324h-1.585c-.225 0-.338-.108-.338-.324v-9.538c0-.294.147-.441.44-.441h7.885zM56.338 75.952c0 .383.032.704.095.964.064.26.17.466.316.618.147.153.345.26.594.324.25.064.566.096.947.096h4.361c.382 0 .697-.032.948-.096.25-.064.447-.17.594-.324.147-.152.252-.358.316-.618a4.12 4.12 0 0 0 .095-.964v-2.208c0-.382-.032-.703-.095-.964a1.33 1.33 0 0 0-.316-.618 1.23 1.23 0 0 0-.594-.324 3.909 3.909 0 0 0-.948-.095h-4.36c-.382 0-.698.031-.948.095-.249.064-.447.172-.594.324a1.331 1.331 0 0 0-.316.618 4.17 4.17 0 0 0-.095.964v2.208zm6.402-6.256c.743 0 1.377.072 1.9.214.524.142.95.368 1.278.677.328.31.566.71.712 1.2.147.49.22 1.089.22 1.796v2.531c0 .707-.073 1.308-.22 1.803-.146.496-.384.898-.712 1.207-.328.31-.754.533-1.278.67-.523.138-1.157.206-1.9.206h-4.538c-.744 0-1.375-.068-1.894-.206-.519-.137-.942-.36-1.27-.67-.328-.31-.568-.711-.72-1.207-.151-.495-.227-1.096-.227-1.803v-2.531c0-.707.076-1.305.228-1.796.151-.49.39-.89.719-1.2.328-.309.751-.535 1.27-.677.519-.142 1.15-.214 1.894-.214h4.538zM80.109 69.696c.215 0 .323.108.323.324v1.443c0 .226-.108.338-.323.338h-7.356c-.382 0-.697.032-.947.096s-.448.172-.594.324a1.316 1.316 0 0 0-.316.61 4.1 4.1 0 0 0-.096.972v2.12c0 .392.032.718.096.978.063.26.168.467.316.619.146.152.344.26.594.324s.565.096.947.096H77.6c.253 0 .44-.067.557-.2.118-.132.176-.365.176-.699V75.85c0-.128-.058-.19-.176-.19h-4.302c-.215 0-.323-.114-.323-.34v-1.104c0-.225.108-.338.323-.338h6.123c.293 0 .44.147.44.441v3.43c0 .824-.156 1.406-.47 1.744-.313.339-.763.508-1.35.508h-5.933c-.743 0-1.374-.068-1.893-.206-.519-.137-.943-.361-1.27-.67-.328-.31-.568-.711-.72-1.207-.152-.495-.227-1.096-.227-1.803v-2.532c0-.706.075-1.304.227-1.795.152-.491.392-.891.72-1.2.327-.31.751-.535 1.27-.677.519-.142 1.15-.214 1.893-.214h7.445zM85.644 76.202h5.051l-2.334-4.312c-.04-.07-.094-.103-.162-.103h-.088c-.068 0-.122.034-.161.103l-2.306 4.312zm2.849-6.505c.372 0 .685.076.94.228.254.152.503.449.749.89l4.86 8.846c.048.099.06.18.036.243-.025.064-.096.096-.213.096H93c-.166 0-.278-.064-.337-.191l-1.043-1.9h-6.9l-1.014 1.9c-.069.127-.18.191-.337.191H81.46c-.127 0-.203-.032-.227-.096-.025-.063-.013-.144.036-.243l4.816-8.846c.245-.441.484-.738.72-.89.234-.152.508-.228.822-.228h.866zM98.213 69.696c.215 0 .323.108.323.324v9.656c0 .216-.108.324-.323.324h-1.586c-.225 0-.338-.108-.338-.324V70.02c0-.216.113-.324.338-.324h1.586zM111.662 69.696c.225 0 .338.108.338.324v1.443c0 .226-.113.338-.338.338h-4.61v7.875c0 .216-.109.324-.323.324h-1.6c-.216 0-.324-.108-.324-.324V71.8h-4.61c-.225 0-.338-.112-.338-.338V70.02c0-.216.113-.324.338-.324h11.467z" fill="#2F455C"/>
        <path d="M43.736 30.74a15.428 15.428 0 0 0 6.927-3.507 47.42 47.42 0 0 0-6.406-4.531 16.928 16.928 0 0 0-.52 8.038" fill="#21D0B3"/>
        <path d="M35.868 20.15a6.477 6.477 0 0 1-1.896-4.589c0-3.584 2.898-6.489 6.472-6.489 2.92 0 5.386 1.938 6.192 4.6h.002s1.264 4.983 6.334 11.027a15.483 15.483 0 0 0 2.967-9.138c0-8.58-6.937-15.534-15.495-15.534-8.557 0-15.494 6.955-15.494 15.534 0 8.481 6.78 15.37 15.203 15.526-.105-3.22-1.165-7.01-4.285-10.938z" fill="#21D0B3"/>
        <path d="M66.043 19.082a6.47 6.47 0 0 1-1.041-3.52c0-3.585 2.898-6.49 6.473-6.49 3.574 0 6.472 2.905 6.472 6.49a6.477 6.477 0 0 1-1.896 4.587c-3.128 3.938-4.187 7.74-4.286 10.965 8.438-.156 15.232-7.057 15.232-15.553C86.997 6.967 80.047 0 71.475 0c-8.573 0-15.523 6.967-15.523 15.561 0 7.459 5.236 13.688 12.224 15.205 1.22-6.719-2.14-11.682-2.14-11.682l.007-.002z" fill="#5280E2"/>
        <path d="M68.101 31.133c-2.197.097-4.245.75-6.014 1.826a55.263 55.263 0 0 0 4.384 2.762 17.739 17.739 0 0 0 1.63-4.588" fill="#1DCDFE"/>
        <path d="M74.1 40.252c.043.07.068.106.068.106l-.003.001a6.467 6.467 0 0 1 1.037 3.516c0 3.583-2.898 6.488-6.472 6.488-3.193 0-5.84-2.32-6.37-5.367l-.006.004s-.636-3.826-3.81-8.84a12.693 12.693 0 0 0-2.591 7.69c0 7.04 5.692 12.746 12.713 12.746 7.022 0 12.715-5.707 12.715-12.746 0-5.97-4.099-10.965-9.625-12.35-.036 4.7 1.935 8.098 2.34 8.746 0 .002.002.004.004.006" fill="#1DCDFE"/>
        <path d="M49.662 43.875c0 3.583-2.898 6.488-6.473 6.488-3.574 0-6.472-2.905-6.472-6.488 0-1.297.383-2.502 1.037-3.516h-.003s.025-.037.068-.107a.04.04 0 0 1 .004-.006c.406-.65 2.388-4.066 2.34-8.79-5.586 1.365-9.737 6.4-9.737 12.419 0 7.066 5.714 12.795 12.763 12.795 7.05 0 12.764-5.729 12.764-12.795 0-6.859-5.388-12.44-12.149-12.764.515 2.538 1.689 5.314 3.946 8.16a6.476 6.476 0 0 1 1.912 4.604" fill="#34F5C6"/>
    </g>
</svg>
