<svg width="24" height="24" viewBox="0 0 24 24" xmlns="http://www.w3.org/2000/svg">
    <path d="M12 0c6.624 0 12 5.376 12 12s-5.376 12-12 12S0 18.624 0 12 5.376 0 12 0zm.125 8.078h-.112c-.232 0-.45.06-.64.164a.66.66 0 0 0-.145.097l.05-.037-.004.001-.108.083-.102.096L9.775 9.61a.657.657 0 0 0-.27.305L8.728 11.7a.66.66 0 0 0 .332.864l.055.025a.658.658 0 0 0 .879-.337l.7-1.605v1.73c0 .137.02.268.059.391l-.486 2.283-1.255 2.108a.852.852 0 0 0 .349 1.197l.085.043a.88.88 0 0 0 1.152-.335l1.146-1.924a.876.876 0 0 0 .268-.468l.282-1.33.552.934.459 2.525a.88.88 0 0 0 1.02.709l.074-.013a.88.88 0 0 0 .711-1.024l-.454-2.502a.876.876 0 0 0-.122-.457l-1.114-1.886.009-.036.71.794a.66.66 0 0 0 .936.047l.09-.083a.66.66 0 0 0 .047-.927l-1.56-1.742a.66.66 0 0 0-.205-.154v-1.13a1.32 1.32 0 0 0-1.32-1.32zM12.07 4.8c-.76 0-1.376.63-1.376 1.405 0 .776.616 1.405 1.376 1.405.76 0 1.376-.629 1.376-1.405S12.83 4.8 12.07 4.8z" fill="#FFF" fill-rule="nonzero"/>
</svg>
