<svg width="16" height="20" viewBox="0 0 16 20" xmlns="http://www.w3.org/2000/svg">
    <path d="M14 20H2a2 2 0 0 1-2-2V2a2 2 0 0 1 2-2h1v2h2v2H3v2h2v2H3v7h4v-5H5V8h2V6H5V4h2V2H5V0h4a.104.104 0 0 1 .027 0h.006a.15.15 0 0 0 .029.007c.088.006.175.023.259.05H9.363a.421.421 0 0 1 .052.044.988.988 0 0 1 .293.2l6 6a.987.987 0 0 1 .2.293.735.735 0 0 1 .023.066l.01.028c.028.083.044.17.049.258a.1.1 0 0 0 .007.029v.006A.112.112 0 0 1 16 7v11a2 2 0 0 1-2 2zM9 2v5h5L9 2zM6 14H4v-2h2v2z" fill="#868E96" fill-rule="nonzero"/>
</svg>
