<svg width="55" height="59" viewBox="0 0 55 59" xmlns="http://www.w3.org/2000/svg">
    <g fill="none" fill-rule="evenodd">
        <path d="M6 0h38a6 6 0 0 1 6 6v48a4 4 0 0 1-4 4H4a4 4 0 0 1-4-4V6a6 6 0 0 1 6-6z" fill="#A5AAB1"/>
        <path d="M13 40h38a4 4 0 0 1 4 4v10a4 4 0 0 1-4 4H9V44a4 4 0 0 1 4-4z" fill="#DDE0E3"/>
        <rect fill="#FFF" x="10.714" y="20" width="29" height="4" rx="2"/>
        <rect fill="#FFF" x="10.714" y="12" width="29" height="4" rx="2"/>
        <rect fill="#FFF" x="10.714" y="27.714" width="8" height="4" rx="2"/>
        <path d="M9 52.719c0 .012 2.883.012 8.648 0V58H3.963C7.321 58.282 9 56.521 9 52.719z" fill="#DDE0E3"/>
    </g>
</svg>
