<svg width="42" height="42" viewBox="0 0 42 42" xmlns="http://www.w3.org/2000/svg" xmlns:xlink="http://www.w3.org/1999/xlink">
    <defs>
        <rect id="a" x="0" y="0" width="42" height="42" rx="16"/>
    </defs>
    <g fill="none" fill-rule="evenodd">
        <mask id="b" fill="#fff">
            <use xlink:href="#a"/>
        </mask>
        <use fill="#EA863F" xlink:href="#a"/>
        <g mask="url(#b)" fill="#FFF">
            <path d="M24.494 11.795c.585.586 1.33.889 2.06.157.732-.731 1.046-2.092.461-2.678-.585-.585-1.653-.466-2.385.265-.731.732-.722 1.671-.136 2.256zM21.379 11.19c.644.261 1.485-.042 1.631-.792.146-.75-.115-1.432-.758-1.557s-1.242.315-1.388 1.065c-.11.598-.057.954.515 1.284zM19.263 11.37c.495-.026.949-.476.817-1.006-.132-.529-.507-.892-.961-.779-.454.113-.709.58-.577 1.109.11.42.251.635.72.676zM16.65 12.132c.446.218 1.06.044 1.202-.483.141-.527-.01-1.026-.463-1.147-.451-.121-.9.162-1.042.69-.108.42-.088.676.303.94zM14.533 13.13c.316.279.85.295 1.076-.08.225-.374.206-.798-.135-1.003-.341-.205-.765-.095-.99.279-.176.3-.213.503.049.804zM18.931 12.913c3.8-1.33 6.013-.793 6.638 1.61 1.234 4.761-3.596 5.772-3.212 9.233.205 1.33.824 2.92 1.856 4.765.656 1.72.1 3.153-1.67 4.296-1.963.495-3.497-.327-4.602-2.464-1.387-4.169-2.195-7.938-2.423-11.307-.353-3.005.785-5.049 3.413-6.133z"/>
        </g>
    </g>
</svg>
