<svg width="42" height="42" viewBox="0 0 42 42" xmlns="http://www.w3.org/2000/svg">
    <g fill="none" fill-rule="evenodd">
        <rect fill="#44474C" width="42" height="42" rx="16"/>
        <g transform="translate(11 9)">
            <path d="m13.213 4.857.604.374a2.258 2.258 0 0 1 .722 3.126l-4.056 6.421a1.506 1.506 0 0 1-2.064.477L6.534 14.09a1.506 1.506 0 0 1-.48-2.084l4.063-6.434a2.258 2.258 0 0 1 3.096-.715z" fill="#FFF"/>
            <ellipse fill="#FFF" cx="14.841" cy="2.361" rx="2.386" ry="2.361"/>
            <path d="m9.706 14.13 4.068 1.512a.753.753 0 0 1 .284 1.224l-3.182 3.355h0M11.023 6.09 5.956 7.844a.753.753 0 0 0-.377.29l-2.8 4.141h0M13.41 7.669l2.203 2.914a.753.753 0 0 0 1.203-.002L19 7.67h0M7.518 13.78l-2.656 4.248a.753.753 0 0 1-.255.249L0 21h0" stroke="#FFF" stroke-width="2.647" stroke-linecap="round"/>
        </g>
    </g>
</svg>
