<svg width="20" height="20" viewBox="0 0 20 20" xmlns="http://www.w3.org/2000/svg">
    <path d="m7.814 16.69 7.322-9.469c.398-.51.54-1.1.406-1.702-.115-.546-.45-1.066-.955-1.46l-1.229-.976c-1.07-.851-2.396-.762-3.157.215L9.38 4.364a.315.315 0 0 0 .053.439l2.122 1.702a.875.875 0 0 1 .274.528.787.787 0 0 1-.68.869.705.705 0 0 1-.54-.152L8.424 6.012a.26.26 0 0 0-.354.045l-5.19 6.718a1.777 1.777 0 0 0-.337 1.496l.663 2.876c.036.152.168.26.328.26l2.918-.036a1.754 1.754 0 0 0 1.362-.681zm4.086-.896h4.758c.464 0 .842.383.842.853a.848.848 0 0 1-.842.853H11.9a.848.848 0 0 1-.842-.853c0-.47.377-.853.842-.853z" fill="#ADB5BD" fill-rule="evenodd"/>
</svg>
