<svg width="20" height="20" viewBox="0 0 20 20" xmlns="http://www.w3.org/2000/svg">
    <g fill="none" fill-rule="evenodd">
        <path d="M0 0h20v20H0z"/>
        <path d="M9.205 5.562c.263-.04.528-.06.794-.06 2.384 0 4.626 1.716 5.93 4.497-.2.424-.425.834-.675 1.23a.75.75 0 1 0 1.275.787c.349-.549.652-1.126.907-1.724a.75.75 0 0 0 0-.592c-1.515-3.516-4.363-5.698-7.437-5.698a5.831 5.831 0 0 0-1.05.09.76.76 0 1 0 .256 1.5v-.03zM3.785 2.72A.753.753 0 1 0 2.72 3.785L5.044 6.1A10.96 10.96 0 0 0 2.564 9.7a.75.75 0 0 0 0 .6c1.513 3.515 4.362 5.696 7.435 5.696a6.942 6.942 0 0 0 3.786-1.154l2.429 2.436a.75.75 0 0 0 1.064 0 .75.75 0 0 0 0-1.064L3.785 2.72zm4.768 6.89 1.836 1.836A1.5 1.5 0 0 1 8.552 9.61zm1.446 4.887c-2.383 0-4.625-1.717-5.922-4.498a9.063 9.063 0 0 1 2.024-2.84L7.428 8.5a2.999 2.999 0 0 0 4.07 4.07l1.193 1.178a5.427 5.427 0 0 1-2.692.75z" fill="#212529"/>
    </g>
</svg>
