<svg width="16" height="16" viewBox="0 0 16 16" xmlns="http://www.w3.org/2000/svg">
    <g fill="none" fill-rule="evenodd">
        <path d="M8 1C4.1 1 1 4.1 1 8s3.1 7 7 7 7-3.1 7-7-3.1-7-7-7z" stroke="#212529" fill="#FFF"/>
        <path d="m8.854 7.38-.747 4.006a.265.265 0 0 0 .073.239.35.35 0 0 0 .252.103c.12 0 .217.085.217.19s-.097.19-.217.19h-.969a.918.918 0 0 1-.658-.267.697.697 0 0 1-.195-.613l.746-4.006a.265.265 0 0 0-.072-.239.35.35 0 0 0-.253-.103c-.12 0-.216-.085-.216-.19s.097-.19.216-.19H8c.254 0 .493.097.658.267.165.17.236.393.196.613zM8.54 5.19a.758.758 0 0 1 0-1.514.758.758 0 0 1 0 1.513z" fill="#212529" fill-rule="nonzero"/>
    </g>
</svg>
