<svg width="12" height="12" viewBox="0 0 12 12" xmlns="http://www.w3.org/2000/svg">
    <path d="m4.852 9.615 3.93-5.081c.213-.274.289-.591.218-.914a1.371 1.371 0 0 0-.513-.783l-.66-.524c-.574-.457-1.286-.409-1.694.115l-.441.573a.17.17 0 0 0 .028.235l1.14.913a.47.47 0 0 1 .146.284.423.423 0 0 1-.365.466.378.378 0 0 1-.29-.082L5.18 3.885a.14.14 0 0 0-.19.024L2.204 7.514a.954.954 0 0 0-.18.803l.355 1.544c.02.081.09.139.176.139l1.566-.02a.941.941 0 0 0 .73-.365z" fill="#FFF" fill-rule="evenodd"/>
</svg>
