<svg width="20" height="20" viewBox="0 0 20 20" xmlns="http://www.w3.org/2000/svg">
    <g fill="none" fill-rule="evenodd">
        <path d="M0 0h20v20H0z"/>
        <path d="M17.437 9.688C15.923 6.022 13.074 3.75 10 3.75S4.077 6.023 2.563 9.688a.811.811 0 0 0 0 .624C4.077 13.977 6.926 16.25 10 16.25s5.923-2.273 7.437-5.938a.811.811 0 0 0 0-.624zm-7.437 5c-2.377 0-4.626-1.79-5.923-4.688C5.374 7.102 7.623 5.312 10 5.312c2.377 0 4.626 1.79 5.923 4.688-1.297 2.898-3.546 4.688-5.923 4.688zm0-7.813c-1.656 0-2.999 1.4-2.999 3.125 0 1.726 1.343 3.125 2.999 3.125 1.656 0 2.999-1.4 2.999-3.125 0-.829-.316-1.624-.878-2.21A2.939 2.939 0 0 0 10 6.875zm0 4.688c-.828 0-1.5-.7-1.5-1.563s.672-1.563 1.5-1.563 1.5.7 1.5 1.563-.672 1.563-1.5 1.563z" fill="#212529"/>
    </g>
</svg>
