<svg width="120" height="120" viewBox="0 0 120 120" xmlns="http://www.w3.org/2000/svg" xmlns:xlink="http://www.w3.org/1999/xlink">
    <defs>
        <path id="dwlu6ur2xc" d="M0 0h36.422v22.764H0z"/>
        <path id="h5kg1x51ge" d="M0 0h36.422v17.452H0z"/>
        <rect id="v7behml3ta" x="0" y="0" width="120" height="120" rx="12"/>
    </defs>
    <g fill="none" fill-rule="evenodd">
        <mask id="jwhl08neub" fill="#fff">
            <use xlink:href="#v7behml3ta"/>
        </mask>
        <use fill="#F0F4F7" xlink:href="#v7behml3ta"/>
        <g mask="url(#jwhl08neub)">
            <path d="M74.578-86.03S54.832-10.474 49.713.963C46.277 8.637 35.606 37.89 29.587 60.426L18.81 55.854C17.41 44.671 20 31.876 24.104 18.02c8.648-29.23 13.579-39.286 14.826-62.84 1.247-23.554-7.885-48.283-3.655-61.607C39.503-119.75 74.578-86.03 74.578-86.03" fill="#1D273F"/>
            <g transform="translate(7.805 74.084)">
                <mask id="pbo939lswd" fill="#fff">
                    <use xlink:href="#dwlu6ur2xc"/>
                </mask>
                <path fill="#2A3756" mask="url(#pbo939lswd)" d="M34.282 22.764 0 11.544 5.117 0l15.75 1.377 15.555 15.527z"/>
            </g>
            <path fill="#FFF" d="m13.875 74.524 12.506 1.078 1.911-9.741-11.182-3.159z"/>
            <path fill="#E2857E" d="m28.337 65.738-11.427-3.07 1.507-6.795L29.81 60.52z"/>
            <path d="M36.639-107.004s19.326 85.09 20.099 92.346c.774 7.253-4.086 21.205-.031 46.204 2.025 12.5 4.927 25.75 7.32 35.877l11.867.591c.604-21.786 1.65-59.998 1.795-68.859.2-12.573 9.789-88.046 9.789-88.046s-43.57-35.557-50.84-18.113" fill="#2A3756"/>
            <g transform="translate(63.955 80.913)">
                <mask id="dr56p809xf" fill="#fff">
                    <use xlink:href="#h5kg1x51ge"/>
                </mask>
                <path fill="#2A3756" mask="url(#dr56p809xf)" d="M36.422 16.254 0 17.453.855 4.267 16.28 0l20.142 9.724z"/>
            </g>
            <path fill="#FFF" d="m65.642 86.225 11.972-3.273-1.465-9.626-11.435.901z"/>
            <path fill="#E2857E" d="m75.337 72.536-10.503.79-.879-6.07 10.97.529z"/>
            <path d="M64.455 99.523v3.5h35.585v-3.5h1v8h-1v-3.5H64.455v3.5h-1v-8h1z" fill="#5280E2" fill-rule="nonzero"/>
            <path stroke="#5280E2" stroke-dasharray="2.4,2.4" d="M63.956 101.077v-22.44M100.378 101.077v-22.44"/>
        </g>
    </g>
</svg>
