<svg width="138" height="49" viewBox="0 0 138 49" xmlns="http://www.w3.org/2000/svg">
    <defs>
        <linearGradient x1="74.005%" y1="34.133%" x2="50%" y2="88.888%" id="a">
            <stop stop-color="#ADB5BD" offset="0%"/>
            <stop stop-color="#0B1B41" offset="100%"/>
        </linearGradient>
        <linearGradient x1="70.146%" y1="29.599%" x2="50%" y2="100%" id="b">
            <stop stop-color="#ADB5BD" offset="0%"/>
            <stop stop-color="#0B1B41" offset="100%"/>
        </linearGradient>
        <linearGradient x1="56.312%" y1="47.539%" x2="50%" y2="58.2%" id="c">
            <stop stop-color="#ADB5BD" offset="0%"/>
            <stop stop-color="#0B1B41" offset="100%"/>
        </linearGradient>
        <linearGradient x1="55.599%" y1="48.079%" x2="50%" y2="58.2%" id="d">
            <stop stop-color="#ADB5BD" offset="0%"/>
            <stop stop-color="#0B1B41" offset="100%"/>
        </linearGradient>
    </defs>
    <g fill="none" fill-rule="evenodd">
        <path d="M38.015 48v-8.976h5.874v-9.57h-5.874V1.47H25.079L1.121 29.982l2.112 9.042h22.374V48h12.408zM25.607 29.52H14.585l11.022-13.266V29.52z" fill="#ADB5BD" fill-rule="nonzero"/>
        <path fill="url(#a)" opacity=".1" d="M14.645 21.293 1.51 21.065 19.267 0l6.386 7.848z" transform="translate(0 8.397)"/>
        <path fill="url(#b)" opacity=".1" d="M25.653 7.603H38V21.08H25.653z" transform="translate(0 8.397)"/>
        <path fill="url(#c)" opacity=".1" transform="matrix(1 0 0 -1 0 74.603)" d="M25.653 30.603H38v5H25.653z"/>
        <g>
            <path d="M130.015 48v-8.976h5.874v-9.57h-5.874V1.47h-12.936L93.121 29.982l2.112 9.042h22.374V48h12.408zm-12.408-18.48h-11.022l11.022-13.266V29.52z" fill="#ADB5BD" fill-rule="nonzero"/>
            <path fill="url(#a)" opacity=".1" d="M14.645 21.293 1.51 21.065 19.267 0l6.386 7.848z" transform="translate(92 8.397)"/>
            <path fill="url(#b)" opacity=".1" d="M25.653 7.603H38V21.08H25.653z" transform="translate(92 8.397)"/>
            <path fill="url(#d)" opacity=".1" transform="matrix(1 0 0 -1 92 74.603)" d="M25.653 30.603H38v5H25.653z"/>
        </g>
        <path d="M68.934 48.924c3.3 0 6.27-.638 8.91-1.914 2.64-1.276 4.895-3.003 6.765-5.181s3.3-4.73 4.29-7.656c.99-2.926 1.485-6.017 1.485-9.273v-.132c0-3.256-.495-6.336-1.485-9.24-.99-2.904-2.409-5.445-4.257-7.623a20.022 20.022 0 0 0-6.699-5.148C75.325 1.503 72.366.876 69.066.876c-3.3 0-6.27.638-8.91 1.914-2.64 1.276-4.884 3.003-6.732 5.181-1.848 2.178-3.278 4.73-4.29 7.656-1.012 2.926-1.518 6.017-1.518 9.273v.132c0 3.256.495 6.336 1.485 9.24.99 2.904 2.398 5.445 4.224 7.623s4.059 3.894 6.699 5.148c2.64 1.254 5.61 1.881 8.91 1.881zm.132-11.352c-1.276 0-2.442-.308-3.498-.924-1.056-.616-1.958-1.485-2.706-2.607s-1.331-2.464-1.749-4.026c-.418-1.562-.627-3.267-.627-5.115v-.132c0-1.848.198-3.542.594-5.082.396-1.54.968-2.86 1.716-3.96s1.639-1.958 2.673-2.574c1.034-.616 2.189-.924 3.465-.924 1.276 0 2.442.319 3.498.957 1.056.638 1.958 1.518 2.706 2.64s1.331 2.453 1.749 3.993c.418 1.54.627 3.234.627 5.082v.132c0 1.848-.198 3.531-.594 5.049-.396 1.518-.957 2.838-1.683 3.96-.726 1.122-1.617 1.991-2.673 2.607-1.056.616-2.222.924-3.498.924z" fill="#ADB5BD" fill-rule="nonzero"/>
        <path d="M0 1h138v48H0z"/>
    </g>
</svg>
