<svg width="131" height="49" viewBox="0 0 131 49" xmlns="http://www.w3.org/2000/svg">
    <g fill="#ADB5BD" fill-rule="nonzero">
        <path d="M19.208 48.924c2.816 0 5.39-.374 7.722-1.122 2.332-.748 4.334-1.826 6.006-3.234a14.875 14.875 0 0 0 3.927-5.148c.946-2.024 1.419-4.334 1.419-6.93v-.132c0-2.508-.44-4.686-1.32-6.534-.88-1.848-2.046-3.366-3.498-4.554-1.452-1.188-3.135-2.079-5.049-2.673a20.035 20.035 0 0 0-5.973-.891c-1.54 0-2.893.154-4.059.462a20.624 20.624 0 0 0-3.333 1.188l.396-6.996h20.79V1.8H5.348l-1.32 23.43 7.59 4.224a20.01 20.01 0 0 1 3.465-1.65c1.21-.44 2.519-.66 3.927-.66 2.024 0 3.663.473 4.917 1.419 1.254.946 1.881 2.255 1.881 3.927v.132c0 1.672-.605 2.992-1.815 3.96s-2.871 1.452-4.983 1.452c-1.98 0-3.872-.44-5.676-1.32-1.804-.88-3.652-2.112-5.544-3.696l-7.326 8.58a29.196 29.196 0 0 0 8.118 5.346c2.992 1.32 6.534 1.98 10.626 1.98zM112.363 48.924c2.552 0 4.917-.363 7.095-1.089s4.059-1.76 5.643-3.102a14.411 14.411 0 0 0 3.729-4.851c.902-1.892 1.353-4.004 1.353-6.336v-.132c0-1.98-.308-3.696-.924-5.148a11.232 11.232 0 0 0-2.574-3.762 13.606 13.606 0 0 0-3.828-2.574 22.744 22.744 0 0 0-4.62-1.518l11.022-9.438V1.8H95.863v10.362h17.688l-10.626 9.57 1.848 6.666h5.412c2.42 0 4.279.418 5.577 1.254 1.298.836 1.947 2.002 1.947 3.498v.132c0 1.408-.528 2.541-1.584 3.399-1.056.858-2.508 1.287-4.356 1.287-2.112 0-4.059-.462-5.841-1.386-1.782-.924-3.509-2.222-5.181-3.894l-8.052 8.052c2.244 2.508 4.961 4.499 8.151 5.973 3.19 1.474 7.029 2.211 11.517 2.211zM65.934 48.924c3.3 0 6.27-.638 8.91-1.914 2.64-1.276 4.895-3.003 6.765-5.181s3.3-4.73 4.29-7.656c.99-2.926 1.485-6.017 1.485-9.273v-.132c0-3.256-.495-6.336-1.485-9.24-.99-2.904-2.409-5.445-4.257-7.623a20.022 20.022 0 0 0-6.699-5.148C72.325 1.503 69.366.876 66.066.876c-3.3 0-6.27.638-8.91 1.914-2.64 1.276-4.884 3.003-6.732 5.181-1.848 2.178-3.278 4.73-4.29 7.656-1.012 2.926-1.518 6.017-1.518 9.273v.132c0 3.256.495 6.336 1.485 9.24.99 2.904 2.398 5.445 4.224 7.623s4.059 3.894 6.699 5.148c2.64 1.254 5.61 1.881 8.91 1.881zm.132-11.352c-1.276 0-2.442-.308-3.498-.924-1.056-.616-1.958-1.485-2.706-2.607s-1.331-2.464-1.749-4.026c-.418-1.562-.627-3.267-.627-5.115v-.132c0-1.848.198-3.542.594-5.082.396-1.54.968-2.86 1.716-3.96s1.639-1.958 2.673-2.574c1.034-.616 2.189-.924 3.465-.924 1.276 0 2.442.319 3.498.957 1.056.638 1.958 1.518 2.706 2.64s1.331 2.453 1.749 3.993c.418 1.54.627 3.234.627 5.082v.132c0 1.848-.198 3.531-.594 5.049-.396 1.518-.957 2.838-1.683 3.96-.726 1.122-1.617 1.991-2.673 2.607-1.056.616-2.222.924-3.498.924z"/>
    </g>
</svg>
