<svg width="64" height="64" viewBox="0 0 64 64" xmlns="http://www.w3.org/2000/svg">
    <g fill="none" fill-rule="evenodd">
        <rect fill="#212529" width="64" height="64" rx="24"/>
        <path d="m28.158 37.598 10.514-12.353a3.6 3.6 0 0 1 5.04-.438l.065.054a3.591 3.591 0 0 1 .442 5.093L33.705 42.307a3.6 3.6 0 0 1-5.039.438l-.065-.054a3.591 3.591 0 0 1-.443-5.093z" fill="#5280E2"/>
        <path d="m33.788 37.587-7.882-9.27a3.6 3.6 0 0 0-5.039-.441l-.065.054a3.591 3.591 0 0 0-.445 5.092l7.881 9.27a3.6 3.6 0 0 0 5.04.441l.064-.054a3.591 3.591 0 0 0 .446-5.092z" fill="#31FFF8" opacity=".559"/>
    </g>
</svg>
