<svg width="26" height="26" viewBox="0 0 26 26" xmlns="http://www.w3.org/2000/svg">
    <path d="M14.218 21h-2.912a.8.8 0 0 1-.782-.629l-.325-1.507a6.402 6.402 0 0 1-1.228-.71l-1.47.468a.8.8 0 0 1-.936-.362l-1.459-2.52a.805.805 0 0 1 .154-.992l1.14-1.04a6.48 6.48 0 0 1 0-1.418l-1.14-1.037a.805.805 0 0 1-.154-.992l1.456-2.523a.8.8 0 0 1 .936-.362l1.47.468c.195-.145.398-.278.608-.4.202-.114.41-.217.623-.309l.326-1.505a.8.8 0 0 1 .781-.63h2.912a.8.8 0 0 1 .78.63l.33 1.506a6.395 6.395 0 0 1 1.228.71l1.47-.468a.8.8 0 0 1 .935.362l1.456 2.522a.805.805 0 0 1-.154.992l-1.14 1.04a6.48 6.48 0 0 1 0 1.417l1.14 1.04c.276.254.34.665.154.991l-1.456 2.523a.8.8 0 0 1-.935.362l-1.47-.468a6.373 6.373 0 0 1-1.228.709l-.33 1.503a.8.8 0 0 1-.78.629zm-4.96-4.617.656.48c.148.11.302.21.462.3.15.087.304.166.463.237l.746.327.366 1.673h1.624l.365-1.674.747-.327c.326-.143.635-.322.922-.533l.657-.48 1.633.52.812-1.406-1.267-1.154.09-.81c.04-.354.04-.712 0-1.066l-.09-.81 1.268-1.156-.813-1.407-1.633.52-.657-.48a4.982 4.982 0 0 0-.922-.537l-.747-.327-.365-1.673H11.95l-.367 1.674-.745.326a4.753 4.753 0 0 0-.923.533l-.656.48-1.632-.52-.814 1.411 1.266 1.153-.09.81c-.039.354-.039.712 0 1.066l.09.81-1.266 1.154.812 1.406 1.632-.52zm3.5-.183a3.2 3.2 0 1 1 0-6.4 3.2 3.2 0 0 1 0 6.4zm0-4.8a1.6 1.6 0 1 0 1.6 1.672v.32V13a1.6 1.6 0 0 0-1.6-1.6z" fill="#FFF" fill-rule="nonzero"/>
</svg>
