<svg width="24" height="24" viewBox="0 0 24 24" xmlns="http://www.w3.org/2000/svg">
    <g fill="none" fill-rule="evenodd">
        <circle fill="#5280E2" cx="12" cy="12" r="12"/>
        <path d="M12 18c-.69 0-1.25-.582-1.25-1.3h2.5c0 .718-.56 1.3-1.25 1.3zm5-1.95H7v-1.3l1.25-.65v-3.575c0-2.25.888-3.71 2.5-4.108V5h2.5v1.417c1.612.398 2.5 1.856 2.5 4.108V14.1l1.25.65v1.3zm-5-8.613a2.217 2.217 0 0 0-1.953.943 3.813 3.813 0 0 0-.547 2.145v4.225h5v-4.225a3.814 3.814 0 0 0-.547-2.145A2.217 2.217 0 0 0 12 7.437z" fill="#FFF" fill-rule="nonzero"/>
    </g>
</svg>
