<svg width="218" height="32" viewBox="0 0 218 32" xmlns="http://www.w3.org/2000/svg" xmlns:xlink="http://www.w3.org/1999/xlink">
    <defs>
        <path id="a" d="M0 0h18.995v16.079H0z"/>
        <path id="c" d="M0 0h17.574v17.564H0z"/>
        <path id="e" d="M0 0h14.45v14.432H0z"/>
    </defs>
    <g fill="none" fill-rule="evenodd">
        <path d="M46.54 7.966c.367 0 .673.015.918.045.246.032.46.097.644.196.183.1.36.238.528.413.169.176.36.41.575.701l8.544 11.209c.061.108.16.16.299.16h.206c.122 0 .184-.076.184-.228V8.472c0-.338.169-.506.506-.506h2.411c.337 0 .506.168.506.506v13.183c0 .935-.169 1.566-.506 1.896-.337.329-.858.493-1.562.493h-1.975c-.353 0-.647-.015-.884-.046a1.956 1.956 0 0 1-.632-.184 2.084 2.084 0 0 1-.54-.401 6.885 6.885 0 0 1-.609-.724L46.586 11.48c-.092-.107-.192-.16-.3-.16h-.206c-.122 0-.183.076-.183.229v11.99c0 .337-.169.505-.505.505H42.98c-.353 0-.529-.168-.529-.505V10.354c0-.933.169-1.565.506-1.895.336-.328.857-.493 1.562-.493h2.02zM81.27 7.966c.352 0 .528.168.528.506v2.182c0 .336-.176.504-.529.504H71.232c-.597 0-1.09.05-1.482.15-.39.1-.705.268-.941.505-.238.238-.402.56-.495.965-.09.405-.137.907-.137 1.504v.23h12.978c.336 0 .505.169.505.506v1.813c0 .338-.169.506-.505.506H68.177v.39c0 .598.046 1.1.137 1.505.093.407.257.728.495.965.236.238.55.406.941.505.391.1.885.15 1.482.15H81.27c.353 0 .529.168.529.505v2.182c0 .337-.176.505-.529.505H71.163c-1.164 0-2.152-.107-2.963-.322-.812-.214-1.474-.562-1.987-1.044-.513-.483-.889-1.11-1.125-1.884-.238-.773-.357-1.711-.357-2.814v-3.95c0-1.102.119-2.036.357-2.802.236-.767.612-1.39 1.125-1.873.513-.482 1.175-.834 1.987-1.056.811-.222 1.8-.333 2.963-.333H81.27zM87.402 7.966c.336 0 .506.168.506.506v9.164c0 .612.049 1.122.148 1.527.1.406.265.728.495.965.229.237.54.406.93.505.39.1.884.15 1.481.15h6.362c.598 0 1.092-.05 1.483-.15.39-.1.7-.268.93-.505.229-.237.39-.559.482-.965.092-.405.138-.915.138-1.527V8.472c0-.338.168-.506.505-.506h2.504c.336 0 .505.168.505.506v9.508c0 1.103-.115 2.041-.345 2.814-.23.774-.6 1.4-1.114 1.884-.513.482-1.179.83-1.998 1.044-.82.215-1.81.322-2.975.322h-6.614c-1.164 0-2.152-.107-2.964-.322-.811-.214-1.473-.562-1.987-1.044-.513-.483-.888-1.11-1.125-1.884-.238-.773-.356-1.711-.356-2.814V8.472c0-.338.176-.506.529-.506h2.48zM110.394 16.166h8.797c.78 0 1.333-.169 1.654-.506.322-.336.482-.85.482-1.539v-.964c0-.69-.16-1.202-.482-1.54-.321-.336-.873-.505-1.654-.505h-8.499c-.199 0-.298.092-.298.276v4.778zm9.51-8.2c1.76 0 3.024.398 3.789 1.194.766.797 1.149 1.976 1.149 3.538v1.308c0 1.318-.268 2.359-.804 3.125-.536.765-1.409 1.255-2.62 1.47l3.93 4.869c.075.076.098.192.068.344-.03.154-.153.23-.368.23h-2.962c-.2 0-.337-.023-.414-.069a.798.798 0 0 1-.23-.23l-3.629-4.777h-7.42v4.57c0 .338-.168.507-.504.507h-2.481c-.353 0-.529-.169-.529-.506V8.655c0-.46.23-.689.69-.689h12.335zM130.584 17.728c0 .596.05 1.098.15 1.505.099.405.263.727.493.964.23.237.54.406.93.505.392.1.885.15 1.482.15h6.822c.597 0 1.09-.05 1.482-.15.39-.099.7-.268.93-.505.229-.237.394-.56.493-.964.1-.407.15-.909.15-1.505v-3.446c0-.597-.05-1.098-.15-1.505-.1-.405-.264-.726-.493-.964-.23-.238-.54-.405-.93-.506-.391-.099-.885-.148-1.482-.148h-6.822c-.597 0-1.09.049-1.482.148-.39.1-.7.268-.93.506-.23.238-.394.559-.494.964-.1.407-.149.908-.149 1.505v3.446zM140.6 7.966c1.164 0 2.155.11 2.975.333.818.222 1.485.574 1.998 1.056.512.483.884 1.107 1.114 1.872.229.766.344 1.7.344 2.802v3.952c0 1.102-.115 2.04-.344 2.813-.23.773-.602 1.401-1.114 1.883-.513.483-1.18.832-1.998 1.046-.82.214-1.811.32-2.975.32H133.5c-1.164 0-2.151-.106-2.963-.32-.812-.214-1.474-.563-1.986-1.046-.514-.482-.888-1.11-1.126-1.883-.238-.773-.356-1.711-.356-2.813v-3.952c0-1.102.118-2.036.356-2.802.238-.765.612-1.39 1.126-1.872.512-.482 1.174-.834 1.986-1.056.812-.222 1.8-.333 2.963-.333h7.098zM167.771 7.966c.337 0 .506.168.506.506v2.25c0 .353-.169.528-.506.528h-11.508c-.597 0-1.09.05-1.481.15-.39.1-.7.268-.93.505-.23.237-.394.556-.495.953-.099.4-.148.904-.148 1.516v3.308c0 .613.049 1.121.148 1.528.1.405.265.727.495.964.23.237.54.406.93.505.391.1.884.15 1.481.15h7.58c.398 0 .69-.104.874-.31.183-.207.274-.57.274-1.092v-1.86c0-.199-.09-.299-.274-.299h-6.731c-.336 0-.505-.175-.505-.527v-1.723c0-.353.169-.529.505-.529h9.579c.459 0 .688.23.688.689v5.352c0 1.286-.245 2.193-.735 2.722-.49.528-1.194.792-2.113.792h-9.28c-1.163 0-2.151-.107-2.963-.322-.811-.214-1.473-.562-1.986-1.044-.513-.483-.888-1.11-1.126-1.884-.237-.773-.356-1.711-.356-2.814v-3.95c0-1.102.119-2.036.356-2.802.238-.767.613-1.39 1.126-1.873.513-.482 1.175-.834 1.986-1.056.812-.222 1.8-.333 2.964-.333h11.645zM176.43 18.118h7.902l-3.652-6.73c-.061-.107-.146-.16-.253-.16h-.137c-.108 0-.192.053-.253.16l-3.606 6.73zm4.457-10.152c.581 0 1.072.119 1.47.356.397.237.788.7 1.171 1.389l7.603 13.805c.077.153.096.28.058.378-.039.1-.15.15-.333.15h-2.917c-.26 0-.437-.1-.529-.298l-1.63-2.964h-10.797l-1.584 2.964c-.108.199-.284.298-.528.298h-2.987c-.198 0-.318-.05-.356-.15-.038-.099-.019-.225.058-.378L177.12 9.71c.383-.689.758-1.152 1.125-1.39.368-.236.797-.355 1.286-.355h1.356zM196.092 7.966c.337 0 .505.168.505.506v15.067c0 .337-.168.505-.505.505h-2.48c-.353 0-.529-.168-.529-.505V8.472c0-.338.176-.506.529-.506h2.48z" fill="#2F455C"/>
        <g transform="translate(198.665 7.966)">
            <mask id="b" fill="#fff">
                <use xlink:href="#a"/>
            </mask>
            <path d="M18.467 0c.352 0 .529.169.529.506v2.25c0 .353-.177.528-.529.528h-7.212v12.289c0 .337-.17.506-.506.506H8.246c-.337 0-.506-.169-.506-.506V3.284H.528C.175 3.284 0 3.11 0 2.756V.506C0 .169.175 0 .528 0h17.94z" fill="#2F455C" mask="url(#b)"/>
        </g>
        <path d="M10.634 17.355a8.727 8.727 0 0 0 3.907-1.973 26.536 26.536 0 0 0-3.612-2.562 9.533 9.533 0 0 0-.295 4.535" fill="#21D0B3"/>
        <path d="M6.18 11.378a3.664 3.664 0 1 1 6.095-3.658h.002s.716 2.81 3.58 6.22a8.718 8.718 0 0 0 1.686-5.153A8.771 8.771 0 0 0 8.77.016 8.77 8.77 0 0 0 0 8.786c0 4.787 3.835 8.671 8.6 8.763-.06-1.817-.654-3.954-2.42-6.171z" fill="#21D0B3"/>
        <g transform="translate(17.55)">
            <mask id="d" fill="#fff">
                <use xlink:href="#c"/>
            </mask>
            <path d="m5.708 10.776.004-.001a3.664 3.664 0 1 1 5.665.603c-1.77 2.223-2.363 4.366-2.419 6.186 4.773-.091 8.616-3.983 8.616-8.777A8.787 8.787 0 0 0 0 8.787c0 4.21 2.964 7.726 6.92 8.583.688-3.793-1.212-6.594-1.212-6.594" fill="#5280E2" mask="url(#d)"/>
        </g>
        <g transform="translate(3.1 17.568)">
            <mask id="f" fill="#fff">
                <use xlink:href="#e"/>
            </mask>
            <path d="M10.889 7.207a3.664 3.664 0 1 1-7.328 0c0-.732.217-1.413.587-1.985h-.002l.04-.06.001-.003C4.417 4.79 5.528 2.86 5.503.197 2.346.971 0 3.812 0 7.207a7.225 7.225 0 1 0 14.45 0C14.45 3.335 11.4.183 7.573 0c.292 1.433.955 3 2.233 4.608a3.654 3.654 0 0 1 1.083 2.6" fill="#34F5C6" mask="url(#f)"/>
        </g>
        <path d="M27.82 22.726a1.823 1.823 0 0 0 .04.063 3.664 3.664 0 0 1-3.076 5.65 3.663 3.663 0 0 1-3.607-3.031l-.003.002s-.367-2.16-2.16-4.988a7.157 7.157 0 0 0-1.463 4.34 7.197 7.197 0 1 0 14.393 0c0-3.369-2.315-6.188-5.44-6.973-.019 2.65 1.088 4.571 1.317 4.937" fill="#1DCDFE"/>
        <path d="M24.423 17.58a7.149 7.149 0 0 0-3.388 1.023c.764.532 1.572 1.06 2.47 1.567a9.988 9.988 0 0 0 .918-2.59" fill="#1DCDFE"/>
    </g>
</svg>
