<svg width="40" height="40" viewBox="0 0 40 40" xmlns="http://www.w3.org/2000/svg">
    <defs>
        <rect id="a" x="6" y="6" width="28" height="28" rx="14"/>
    </defs>
    <g fill="none" fill-rule="evenodd">
        <rect fill="#F4F6FC" width="40" height="40" rx="20"/>
        <rect stroke="#FFF" stroke-width="2" x="5" y="5" width="30" height="30" rx="14"/>
        <path d="M21.97 31h-3.939c-.509 0-.949-.36-1.057-.865l-.44-2.072a8.627 8.627 0 0 1-1.662-.976l-1.988.644a1.075 1.075 0 0 1-1.266-.498l-1.975-3.467a1.12 1.12 0 0 1 .21-1.362l1.542-1.43a9.056 9.056 0 0 1 0-1.95l-1.543-1.426a1.12 1.12 0 0 1-.209-1.364l1.97-3.469a1.075 1.075 0 0 1 1.266-.498l1.989.643c.264-.198.539-.382.823-.55.273-.156.554-.298.842-.424l.442-2.07A1.086 1.086 0 0 1 18.03 9h3.94c.508 0 .947.36 1.056.866l.446 2.071c.303.136.6.29.886.46.267.157.526.33.774.516l1.989-.644a1.075 1.075 0 0 1 1.265.498l1.97 3.469a1.12 1.12 0 0 1-.209 1.363l-1.542 1.43c.07.647.07 1.301 0 1.949l1.542 1.43c.374.35.46.915.209 1.363l-1.97 3.468c-.254.448-.78.655-1.265.498l-1.99-.643a8.61 8.61 0 0 1-1.66.974l-.445 2.067A1.086 1.086 0 0 1 21.97 31zm-1.974-6.6c-2.39 0-4.329-1.97-4.329-4.4 0-2.43 1.939-4.4 4.33-4.4 2.39 0 4.328 1.97 4.328 4.4-.002 2.429-1.939 4.397-4.329 4.4zm0-6.6c-1.182.001-2.145.967-2.162 2.168-.017 1.202.918 2.195 2.1 2.231 1.182.036 2.174-.9 2.227-2.1v.44V20c0-1.215-.97-2.2-2.165-2.2z" fill="#5280E3" fill-rule="nonzero"/>
        <ellipse fill="#FFF" cx="20.022" cy="20.05" rx="4.019" ry="4"/>
    </g>
</svg>
