<svg width="40" height="40" viewBox="0 0 40 40" xmlns="http://www.w3.org/2000/svg">
    <g fill="none" fill-rule="evenodd">
        <rect fill="#F4F6FC" width="40" height="40" rx="20"/>
        <rect fill="#FFF" x="4" y="4" width="32" height="32" rx="16"/>
        <g fill="#5280E3">
            <path d="M28 17.2a1.8 1.8 0 0 1-1.8 1.8H12.89a1.8 1.8 0 0 1 0-3.6H26.2a1.8 1.8 0 0 1 1.8 1.8z"/>
            <path d="m17.634 12.276.003.003a1.761 1.761 0 0 1 .01 2.544l-3.762 3.632a1.918 1.918 0 0 1-2.653.011l-.003-.002a1.761 1.761 0 0 1-.01-2.545l3.762-3.632a1.918 1.918 0 0 1 2.653-.01z" opacity=".5"/>
            <g>
                <path d="M11 22.8a1.8 1.8 0 0 1 1.8-1.8h13.31a1.8 1.8 0 0 1 0 3.6H12.8a1.8 1.8 0 0 1-1.8-1.8z"/>
                <path d="m21.366 27.724-.003-.003a1.761 1.761 0 0 1-.01-2.544l3.762-3.632a1.918 1.918 0 0 1 2.653-.011l.003.002a1.761 1.761 0 0 1 .01 2.545l-3.762 3.632a1.918 1.918 0 0 1-2.653.01z" opacity=".5"/>
            </g>
        </g>
    </g>
</svg>
