<svg width="177" height="26" viewBox="0 0 177 26" xmlns="http://www.w3.org/2000/svg" xmlns:xlink="http://www.w3.org/1999/xlink">
    <defs>
        <path id="a" d="M0 0h15.433v13.064H0z"/>
        <path id="c" d="M0 0h14.279v14.271H0z"/>
        <path id="e" d="M0 0h11.74v11.726H0z"/>
    </defs>
    <g fill="none" fill-rule="evenodd">
        <path d="M37.814 6.472c.298 0 .547.013.746.037.2.026.373.079.522.16.15.08.293.193.43.335.137.143.292.333.467.57l6.942 9.106c.05.088.13.131.243.131h.168c.099 0 .149-.062.149-.186V6.883c0-.274.137-.41.41-.41h1.96c.274 0 .41.136.41.41v10.712c0 .76-.136 1.272-.41 1.54-.274.267-.697.401-1.269.401h-1.605c-.286 0-.526-.012-.718-.038a1.589 1.589 0 0 1-.513-.149 1.693 1.693 0 0 1-.439-.326 5.594 5.594 0 0 1-.495-.588l-6.96-9.107c-.075-.087-.157-.131-.244-.131h-.168c-.099 0-.149.062-.149.186v9.742c0 .274-.137.411-.41.411h-1.96c-.286 0-.43-.137-.43-.41V8.412c0-.759.138-1.272.412-1.54.273-.267.696-.4 1.268-.4h1.643zM66.031 6.472c.287 0 .43.137.43.411v1.773c0 .273-.143.41-.43.41h-8.155c-.485 0-.886.041-1.204.122-.317.08-.573.218-.765.41-.193.193-.326.455-.402.784-.074.33-.111.737-.111 1.222v.187h10.544c.273 0 .41.137.41.41v1.475c0 .273-.137.41-.41.41H55.394v.317c0 .486.037.894.111 1.223.076.33.209.591.402.784.192.194.448.33.765.41.318.081.719.122 1.204.122h8.155c.287 0 .43.137.43.41v1.773c0 .274-.143.411-.43.411H57.82c-.946 0-1.748-.087-2.408-.262-.66-.173-1.197-.457-1.614-.848-.417-.393-.722-.902-.914-1.53-.194-.629-.29-1.391-.29-2.287v-3.21c0-.895.096-1.654.29-2.277.192-.622.497-1.128.914-1.52.417-.393.955-.679 1.614-.859.66-.18 1.462-.27 2.408-.27h8.211zM71.014 6.472c.273 0 .411.137.411.411v7.446c0 .498.04.912.12 1.241.082.33.215.591.402.784.187.193.44.33.756.41.317.082.719.122 1.204.122h5.17c.485 0 .886-.04 1.203-.122.317-.08.57-.217.756-.41.186-.193.317-.454.392-.784.074-.33.112-.743.112-1.241V6.883c0-.274.136-.41.41-.41h2.035c.273 0 .41.136.41.41v7.726c0 .896-.093 1.658-.28 2.286-.186.629-.488 1.138-.905 1.53-.417.392-.958.676-1.624.85-.665.174-1.471.261-2.417.261h-5.374c-.946 0-1.748-.087-2.408-.262-.66-.173-1.197-.457-1.614-.848-.417-.393-.722-.902-.914-1.53-.193-.629-.29-1.391-.29-2.287V6.883c0-.274.143-.41.43-.41h2.015zM89.695 13.135h7.148c.634 0 1.083-.137 1.344-.411.261-.273.391-.69.391-1.25v-.784c0-.56-.13-.976-.391-1.25s-.71-.411-1.344-.411h-6.906c-.161 0-.242.074-.242.224v3.882zm7.727-6.663c1.43 0 2.457.324 3.078.97.623.648.934 1.606.934 2.875v1.063c0 1.07-.218 1.916-.653 2.539-.436.622-1.145 1.02-2.128 1.194l3.192 3.956c.061.062.08.156.055.28-.024.125-.124.187-.298.187h-2.407c-.163 0-.274-.019-.337-.056a.648.648 0 0 1-.186-.187l-2.949-3.881h-6.028v3.713c0 .274-.137.411-.41.411h-2.016c-.286 0-.43-.137-.43-.41V7.031c0-.373.187-.56.56-.56h10.023zM106.1 14.404c0 .485.04.892.12 1.222.081.33.215.591.402.784.187.193.439.33.756.41.318.082.719.122 1.203.122h5.543c.486 0 .887-.04 1.204-.121.318-.081.57-.218.756-.411.186-.193.32-.454.401-.784.08-.33.122-.737.122-1.222v-2.8c0-.485-.041-.892-.122-1.222-.08-.33-.215-.59-.4-.784-.188-.193-.44-.33-.757-.41-.317-.082-.718-.122-1.204-.122h-5.543c-.484 0-.885.04-1.203.121-.317.082-.569.218-.756.411-.187.193-.32.454-.401.784-.081.33-.121.737-.121 1.222v2.8zm8.137-7.932c.945 0 1.75.09 2.417.27.664.181 1.206.468 1.623.86.417.391.718.898.905 1.52.186.622.28 1.381.28 2.277v3.21c0 .896-.094 1.658-.28 2.286-.187.628-.488 1.138-.905 1.53-.417.393-.959.676-1.623.85-.666.174-1.472.26-2.417.26h-5.767c-.946 0-1.748-.086-2.408-.26-.66-.174-1.197-.457-1.614-.85-.417-.392-.721-.902-.914-1.53-.194-.628-.29-1.39-.29-2.286V11.4c0-.896.096-1.655.29-2.277.193-.622.497-1.129.914-1.52.417-.392.955-.679 1.614-.86.66-.18 1.462-.27 2.408-.27h5.767zM136.314 6.472c.274 0 .41.137.41.411v1.828c0 .288-.136.43-.41.43h-9.35c-.485 0-.886.04-1.204.121-.317.081-.568.218-.755.41-.187.194-.32.452-.402.775-.08.324-.12.735-.12 1.232v2.688c0 .497.04.91.12 1.24.081.33.215.592.402.784.187.193.438.33.755.411.318.08.719.122 1.204.122h6.159c.323 0 .56-.085.71-.253.149-.168.223-.463.223-.886v-1.512c0-.161-.074-.243-.224-.243h-5.469c-.273 0-.41-.142-.41-.428v-1.4c0-.286.137-.43.41-.43h7.783c.373 0 .56.187.56.56v4.348c0 1.045-.2 1.783-.597 2.212-.398.43-.97.644-1.717.644h-7.54c-.946 0-1.748-.087-2.408-.262-.66-.173-1.197-.457-1.613-.848-.417-.393-.722-.902-.915-1.53-.193-.629-.29-1.391-.29-2.287v-3.21c0-.895.097-1.654.29-2.277.193-.622.498-1.128.915-1.52.416-.393.954-.679 1.613-.859.66-.18 1.462-.27 2.408-.27h9.462zM143.35 14.721h6.42l-2.967-5.468c-.05-.087-.119-.13-.206-.13h-.111c-.088 0-.157.043-.206.13l-2.93 5.468zm3.62-8.249c.473 0 .871.097 1.195.29.323.192.64.569.952 1.128l6.177 11.216c.062.125.078.227.047.308-.031.082-.122.122-.27.122h-2.37c-.212 0-.356-.08-.43-.243l-1.325-2.407h-8.772l-1.287 2.407c-.088.162-.231.243-.43.243h-2.426c-.162 0-.258-.04-.29-.122-.03-.08-.015-.183.048-.308L143.91 7.89c.311-.56.616-.936.914-1.129.299-.192.647-.289 1.045-.289h1.101zM159.325 6.472c.273 0 .41.137.41.411v12.242c0 .274-.137.411-.41.411h-2.015c-.287 0-.43-.137-.43-.41V6.882c0-.274.143-.41.43-.41h2.015z" fill="#FFF"/>
        <g transform="translate(161.415 6.472)">
            <mask id="b" fill="#fff">
                <use xlink:href="#a"/>
            </mask>
            <path d="M15.005 0c.286 0 .429.137.429.41v1.83c0 .286-.143.429-.43.429h-5.86v9.984c0 .274-.137.41-.41.41H6.7c-.274 0-.41-.136-.41-.41V2.669H.43c-.288 0-.43-.143-.43-.43V.411C0 .137.142 0 .43 0h14.575z" fill="#FFF" mask="url(#b)"/>
        </g>
        <path d="M8.64 14.101a7.091 7.091 0 0 0 3.175-1.603 21.56 21.56 0 0 0-2.935-2.082 7.745 7.745 0 0 0-.24 3.685" fill="#21D0B3"/>
        <path d="M5.022 9.245a2.977 2.977 0 1 1 4.953-2.972s.582 2.282 2.91 5.053a7.083 7.083 0 0 0 1.369-4.187A7.127 7.127 0 0 0 0 7.14a7.122 7.122 0 0 0 6.987 7.12c-.048-1.477-.53-3.213-1.965-5.014z" fill="#21D0B3"/>
        <g transform="translate(14.26)">
            <mask id="d" fill="#fff">
                <use xlink:href="#c"/>
            </mask>
            <path d="M4.638 8.755h.003a2.977 2.977 0 1 1 4.603.49c-1.439 1.806-1.92 3.547-1.965 5.026A7.136 7.136 0 0 0 7.139 0a7.14 7.14 0 0 0-1.517 14.113c.56-3.081-.984-5.358-.984-5.358" fill="#5280E2" mask="url(#d)"/>
        </g>
        <path d="m22.604 18.465.002.002.031.05h-.001a2.977 2.977 0 1 1-5.43 2.128h-.002s-.299-1.755-1.755-4.052a5.815 5.815 0 0 0-1.19 3.525 5.847 5.847 0 1 0 11.696 0 5.844 5.844 0 0 0-4.42-5.665c-.016 2.154.883 3.715 1.07 4.012" fill="#1DCDFE"/>
        <path d="M19.843 14.284a5.808 5.808 0 0 0-2.752.831c.62.432 1.277.861 2.007 1.274a8.116 8.116 0 0 0 .745-2.105" fill="#1DCDFE"/>
        <g transform="translate(2.519 14.274)">
            <mask id="f" fill="#fff">
                <use xlink:href="#e"/>
            </mask>
            <path d="M8.847 5.856A2.977 2.977 0 1 1 3.37 4.243H3.37l.031-.05.002-.002c.187-.298 1.09-1.866 1.07-4.03A5.869 5.869 0 0 0 5.87 11.725 5.865 5.865 0 0 0 6.153 0c.237 1.164.776 2.438 1.814 3.744.544.54.88 1.286.88 2.112" fill="#34F5C6" mask="url(#f)"/>
        </g>
    </g>
</svg>
