<svg width="16" height="20" viewBox="0 0 16 20" xmlns="http://www.w3.org/2000/svg">
    <path d="M14 20H2a2 2 0 0 1-2-2V2a2 2 0 0 1 2-2h7a.104.104 0 0 1 .027 0h.006a.15.15 0 0 0 .029.007c.088.006.175.023.259.05H9.363a.421.421 0 0 1 .052.044.988.988 0 0 1 .293.2l6 6a.987.987 0 0 1 .2.293.735.735 0 0 1 .023.066l.01.028c.028.083.044.17.049.258a.1.1 0 0 0 .007.029v.006A.112.112 0 0 1 16 7v11a2 2 0 0 1-2 2zm-3.576-8v5h.94v-2.04h1.46v-.837h-1.46v-1.281H13V12h-2.576zm-3.7 0v5H7.93c.506.026.996-.18 1.332-.56a2.3 2.3 0 0 0 .486-1.548v-.81a2.287 2.287 0 0 0-.5-1.526c-.325-.37-.8-.574-1.293-.555H6.724zM3 12v5h.94v-1.758h.626c.418.023.826-.132 1.124-.426.284-.318.431-.735.41-1.16a1.725 1.725 0 0 0-.412-1.194A1.4 1.4 0 0 0 4.585 12H3zM9 2v5h5L9 2zM7.946 16.164h-.282v-3.321h.342a.716.716 0 0 1 .62.292c.147.303.21.64.182.976v.869c.022.32-.047.639-.2.92a.765.765 0 0 1-.662.264zM4.585 14.4h-.646v-1.56h.655a.475.475 0 0 1 .4.228c.108.178.16.385.15.594a.89.89 0 0 1-.147.55.5.5 0 0 1-.412.188z" fill="#FF7370" fill-rule="nonzero"/>
</svg>
