<svg width="16" height="20" viewBox="0 0 16 20" xmlns="http://www.w3.org/2000/svg">
    <path d="M14 20H2a2 2 0 0 1-2-2V2a2 2 0 0 1 2-2h7a.104.104 0 0 1 .027 0h.006a.15.15 0 0 0 .029.007c.088.006.175.023.259.05h.042a.421.421 0 0 1 .052.044.988.988 0 0 1 .293.2l6 6a.987.987 0 0 1 .2.293.735.735 0 0 1 .023.066l.01.028c.028.083.044.17.049.258a.1.1 0 0 0 .007.029v.006A.112.112 0 0 1 16 7v11a2 2 0 0 1-2 2zm-2.539-8a1.4 1.4 0 0 0-1.188.546 2.552 2.552 0 0 0-.406 1.547v.876c-.029.54.128 1.074.443 1.514.3.35.746.542 1.207.518.286.003.57-.05.836-.154h.008-.006a.189.189 0 0 1 .029-.014h.005l.016-.008.021-.01c.218-.1.412-.247.568-.43v-2.011H11.45v.742h.637v.893l-.08.06a.753.753 0 0 1-.436.117.661.661 0 0 1-.607-.3 1.962 1.962 0 0 1-.183-.97v-.882a1.985 1.985 0 0 1 .173-.925.574.574 0 0 1 .535-.292.55.55 0 0 1 .446.17c.12.19.182.41.18.633H13a1.933 1.933 0 0 0-.433-1.227c-.297-.28-.7-.422-1.106-.392zM3 15.5c-.021.397.1.788.344 1.1.244.273.598.42.963.4.362.01.709-.148.941-.426a1.7 1.7 0 0 0 .365-1.137v-3.37H4.7v3.323c0 .528-.133.8-.4.8s-.393-.232-.393-.69H3zm3.327-3.428v4.866h.91v-1.715h.607c.405.022.802-.128 1.09-.414.274-.311.414-.717.392-1.13a1.69 1.69 0 0 0-.4-1.164c-.27-.3-.661-.464-1.065-.447l-1.534.004zM9 2v5h5L9 2zM7.862 14.4h-.625v-1.515h.635c.16 0 .307.084.39.22.105.175.156.376.146.579a.866.866 0 0 1-.142.535.483.483 0 0 1-.404.18z" fill="#4F8BF1" fill-rule="nonzero"/>
</svg>
