<svg width="16" height="20" viewBox="0 0 16 20" xmlns="http://www.w3.org/2000/svg">
    <g fill="none" fill-rule="evenodd">
        <path d="M14 20H2a2 2 0 0 1-2-2V2a2 2 0 0 1 2-2h7a.104.104 0 0 1 .027 0h.006a.15.15 0 0 0 .029.007c.088.006.175.023.259.05H9.363a.421.421 0 0 1 .052.044.988.988 0 0 1 .293.2l6 6a.987.987 0 0 1 .2.293.735.735 0 0 1 .023.066l.01.028c.028.083.044.17.049.258a.1.1 0 0 0 .007.029v.006A.112.112 0 0 1 16 7v11a2 2 0 0 1-2 2zM2 0h12a2 2 0 0 1 2 2v16a2 2 0 0 1-2 2H7a.104.104 0 0 1-.027 0h-.006a.15.15 0 0 0-.029-.006 1.014 1.014 0 0 1-.259-.051H6.637a.421.421 0 0 1-.052-.043.988.988 0 0 1-.293-.2l-6-6a.987.987 0 0 1-.2-.293.735.735 0 0 1-.023-.066l-.01-.028a.974.974 0 0 1-.049-.258.1.1 0 0 0-.007-.029v-.006A.112.112 0 0 1 0 13V2a2 2 0 0 1 2-2z" fill="#2E3A59" fill-rule="nonzero"/>
        <path d="m10.285 10.43-3.528 2.117a.5.5 0 0 1-.757-.43V7.885a.5.5 0 0 1 .757-.429l3.528 2.117a.5.5 0 0 1 0 .858z" fill="#FFF" fill-rule="nonzero"/>
        <path stroke="#FFF" stroke-width=".5" stroke-dasharray="1" d="M1.527 2.002h13M1.527 18.002h13"/>
    </g>
</svg>
