<svg width="20" height="20" viewBox="0 0 20 20" xmlns="http://www.w3.org/2000/svg">
    <path d="M10 0c5.52 0 10 4.48 10 10s-4.48 10-10 10S0 15.52 0 10 4.48 0 10 0zm1.836 6.34a1.199 1.199 0 0 0-1.5-.612l-3.54 1.308A.595.595 0 0 0 6.4 7.6v1.8c0 .336.264.6.6.6.336 0 .6-.264.6-.6V8.02l1.848-.684-1.152 5.868-2.748-.564a.609.609 0 0 0-.708.468.6.6 0 0 0 .468.708l3.336.684a.594.594 0 0 0 .708-.468l.516-2.58 1.332 1.452V16.6c0 .336.264.6.6.6.336 0 .6-.264.6-.6v-3.936a.555.555 0 0 0-.156-.384l-1.428-1.56.492-2.82c.828 1.104 1.932 1.752 2.784 1.992.36.096.708-.192.708-.564V9.28c0-.264-.18-.48-.444-.54-.66-.18-1.74-.78-2.52-2.4zM11.8 2.8c-.66 0-1.2.54-1.2 1.2 0 .66.54 1.2 1.2 1.2.66 0 1.2-.54 1.2-1.2 0-.66-.54-1.2-1.2-1.2z" fill="#3F59A8" fill-rule="nonzero"/>
</svg>
