<svg width="42" height="42" viewBox="0 0 42 42" xmlns="http://www.w3.org/2000/svg" xmlns:xlink="http://www.w3.org/1999/xlink">
    <defs>
        <rect id="a" x="0" y="0" width="42" height="42" rx="16"/>
    </defs>
    <g fill="none" fill-rule="evenodd">
        <mask id="b" fill="#fff">
            <use xlink:href="#a"/>
        </mask>
        <use fill="#A1C532" xlink:href="#a"/>
        <path d="m15.32 14.832 4.654 7.371c1.138 2.28 1.707 4.225 1.707 5.835 0 1.61-.305 2.526-.915 2.748-1.816.332-2.724.803-2.724 1.413 0 .916 2.516 1.578 4.98 1.578 1.642 0 2.992-.417 4.05-1.25.262-.264.262-.844 0-1.74-.264-.898.161-2.903 1.273-6.016 1.05-1.58 1.2-2.76.45-3.537-.75-.777-1.686-1.15-2.811-1.12-1.19-.313-1.915-.88-2.173-1.699-.387-1.229-1.215-7.404-2.13-8.522-.915-1.117-2.637-2.69-4.33-1.904-1.691.787-3.552 2.044-3.081 3.847.314 1.201.664 2.2 1.05 2.996z" fill="#FFF" mask="url(#b)"/>
    </g>
</svg>
