<svg width="42" height="42" viewBox="0 0 42 42" xmlns="http://www.w3.org/2000/svg" xmlns:xlink="http://www.w3.org/1999/xlink">
    <defs>
        <rect id="a" x="0" y="0" width="42" height="42" rx="16"/>
    </defs>
    <g fill="none" fill-rule="evenodd">
        <mask id="b" fill="#fff">
            <use xlink:href="#a"/>
        </mask>
        <use fill="#E27352" xlink:href="#a"/>
        <g mask="url(#b)" fill="#FFF">
            <path d="M16.744 12.885c.741-.325 1.286-.903.892-1.86-.393-.956-1.506-1.76-2.248-1.436-.741.325-1.023 1.364-.63 2.32.393.956 1.244 1.3 1.986.976zM19.778 11.99c.676.012 1.335-.575 1.206-1.33-.13-.756-.604-1.302-1.232-1.187-.627.114-1.018.742-.89 1.497.11.6.282.915.916 1.02zM21.812 11.908c.434.219 1.032.044 1.17-.485.137-.53-.01-1.03-.45-1.152-.44-.122-.877.163-1.014.692-.106.423-.086.68.294.945zM23.547 12.803c.434.219 1.032.044 1.17-.485.137-.53-.011-1.03-.45-1.152-.44-.122-.877.163-1.015.692-.105.423-.085.68.295.945zM25.233 13.805c.307.28.828.296 1.047-.08.218-.376.2-.802-.132-1.008-.331-.206-.744-.095-.962.28-.172.301-.208.506.047.808zM23.04 13.587c-3.698-1.335-5.85-.796-6.46 1.616-1.2 4.78 3.5 5.796 3.126 9.271-.2 1.336-.801 2.93-1.805 4.784-.64 1.728-.098 3.165 1.623 4.313 1.911.497 3.404-.328 4.478-2.474 1.35-4.185 2.136-7.97 2.359-11.353.342-3.016-.765-5.069-3.322-6.157z"/>
        </g>
    </g>
</svg>
