<svg width="24" height="24" viewBox="0 0 24 24" xmlns="http://www.w3.org/2000/svg">
    <path d="M13.689 21h-3.377a.922.922 0 0 1-.906-.707l-.378-1.696a7.482 7.482 0 0 1-1.424-.798l-1.704.526a.94.94 0 0 1-1.085-.407l-1.692-2.836a.886.886 0 0 1 .179-1.116l1.322-1.17a7.074 7.074 0 0 1 0-1.594l-1.322-1.168a.886.886 0 0 1-.179-1.116l1.688-2.837a.94.94 0 0 1 1.086-.408l1.704.526c.226-.162.462-.313.706-.45.234-.128.475-.244.721-.347l.379-1.694A.922.922 0 0 1 10.312 3h3.377c.436 0 .813.295.905.708l.383 1.695a7.504 7.504 0 0 1 1.423.798l1.705-.526a.94.94 0 0 1 1.084.407l1.688 2.838a.886.886 0 0 1-.179 1.115l-1.322 1.17c.06.53.06 1.065 0 1.595l1.322 1.17c.32.286.395.748.18 1.115l-1.689 2.838a.94.94 0 0 1-1.084.408l-1.705-.527a7.416 7.416 0 0 1-1.423.798l-.383 1.69a.922.922 0 0 1-.905.708zm-5.752-5.194.761.54a5.836 5.836 0 0 0 1.072.604l.866.368.424 1.882h1.883l.424-1.883.866-.368a5.749 5.749 0 0 0 1.07-.6l.76-.54 1.894.586.942-1.582-1.469-1.3.104-.91c.046-.398.046-.8 0-1.199l-.104-.91 1.47-1.302-.943-1.583-1.893.585-.762-.54a5.822 5.822 0 0 0-1.07-.604l-.865-.368-.424-1.882H11.06l-.426 1.883-.863.367a5.597 5.597 0 0 0-1.07.6l-.762.54-1.892-.586-.943 1.588 1.468 1.297-.104.912c-.046.398-.046.8 0 1.198l.104.911-1.468 1.299.941 1.582 1.892-.585zm4.06-.206c-2.05 0-3.71-1.612-3.71-3.6s1.66-3.6 3.71-3.6 3.71 1.612 3.71 3.6c-.002 1.987-1.662 3.597-3.71 3.6zm0-5.4c-1.014.001-1.839.79-1.853 1.774-.015.983.787 1.796 1.8 1.825 1.013.03 1.863-.736 1.908-1.718v.36V12c0-.994-.83-1.8-1.855-1.8z" fill="#212529" fill-rule="nonzero"/>
</svg>
