<svg width="16" height="16" viewBox="0 0 16 16" xmlns="http://www.w3.org/2000/svg">
    <g fill="none" fill-rule="evenodd">
        <path opacity=".5" d="M0 0h16v16H0z"/>
        <g fill="#5280E2">
            <path d="m1.888 8.101.002.011a5.252 5.252 0 0 0 2.966 3.698L8 13.24v-1.684h1.778a4.444 4.444 0 0 0 4.444-4.445v-.889a4.444 4.444 0 0 0-4.444-4.444H6.222a4.444 4.444 0 0 0-4.444 4.444v.89c0 .337.037.664.107.978l.003.011zM9.778 16 4.12 13.429a7.03 7.03 0 0 1-3.97-4.95A6.244 6.244 0 0 1 0 7.11v-.889A6.222 6.222 0 0 1 6.222 0h3.556A6.222 6.222 0 0 1 16 6.222v.89a6.222 6.222 0 0 1-6.222 6.221V16z" fill-rule="nonzero"/>
            <path d="M8.609 14.516C2.909 12.812.347 9.922.919 5.844 1.492 1.767 4.464.127 9.838.924c5.504 1.13 6.675 4.496 3.514 10.1-1.06.842-2.501 1.314-4.322 1.416l-.421 2.076z"/>
        </g>
    </g>
</svg>
