<svg width="16" height="16" viewBox="0 0 16 16" xmlns="http://www.w3.org/2000/svg">
    <g fill="none" fill-rule="evenodd">
        <path opacity=".5" d="M0 0h16v16H0z"/>
        <path d="M7.4 16a1.616 1.616 0 0 1-1.608-1.6h3.2c.002.214-.039.426-.12.624-.21.482-.638.833-1.151.944h-.037c-.094.02-.189.03-.284.032zm6.4-2.4H1V12l1.6-.8V6.8a6.452 6.452 0 0 1 .74-3.248A3.723 3.723 0 0 1 5.8 1.744V0H9v1.744c2.063.491 3.2 2.286 3.2 5.056v4.4l1.6.8v1.6zm1.576-7.2h-1.6a6.937 6.937 0 0 0-2.712-5.256L12.2 0a7.92 7.92 0 0 1 2.26 2.789 9.216 9.216 0 0 1 .916 3.611z" fill="#FFC043" fill-rule="nonzero"/>
    </g>
</svg>
