<svg width="18" height="18" viewBox="0 0 18 18" xmlns="http://www.w3.org/2000/svg">
    <g fill="none" fill-rule="evenodd">
        <path opacity=".5" d="M1 1h16v16H1z"/>
        <path d="m8.42 14.852-2.181.662a2 2 0 0 1-2.58-1.875l-.045-2.278a2 2 0 0 0-.36-1.105l-1.302-1.87a2 2 0 0 1 .985-3.033l2.153-.746a2 2 0 0 0 .94-.683l1.375-1.817a2 2 0 0 1 3.19 0l1.375 1.817a2 2 0 0 0 .94.683l2.153.746a2 2 0 0 1 .985 3.034l-1.303 1.87a2 2 0 0 0-.359 1.104l-.044 2.278a2 2 0 0 1-2.58 1.875l-2.181-.662a2 2 0 0 0-1.162 0z" fill="#EE5572"/>
    </g>
</svg>
