<svg width="20" height="20" viewBox="0 0 20 20" xmlns="http://www.w3.org/2000/svg">
    <g fill="none" fill-rule="evenodd">
        <path opacity=".5" d="M0 0h20v20H0z"/>
        <path d="M15.75 8a.75.75 0 0 0-.75.75v2.535l-1.11-1.11a2.092 2.092 0 0 0-2.947 0l-.525.532-1.86-1.867a2.092 2.092 0 0 0-2.948 0L4.5 9.957V5.75A.75.75 0 0 1 5.25 5h6a.75.75 0 1 0 0-1.5h-6A2.25 2.25 0 0 0 3 5.75v9.165A2.092 2.092 0 0 0 5.085 17h9.33a2.16 2.16 0 0 0 .6-.09 2.055 2.055 0 0 0 1.5-1.988V8.75A.75.75 0 0 0 15.75 8zm-10.5 7.5a.75.75 0 0 1-.75-.75v-2.678l2.168-2.167a.585.585 0 0 1 .824 0l5.603 5.595H5.25zm9.75-.75a.75.75 0 0 1-.135.405l-3.39-3.405.533-.525a.578.578 0 0 1 .825 0L15 13.408v1.342zM17.25 3.5h-.75v-.75a.75.75 0 1 0-1.5 0v.75h-.75a.75.75 0 1 0 0 1.5H15v.75a.75.75 0 1 0 1.5 0V5h.75a.75.75 0 1 0 0-1.5z" fill="#212529" fill-rule="nonzero"/>
    </g>
</svg>
