<svg width="120" height="120" viewBox="0 0 120 120" xmlns="http://www.w3.org/2000/svg" xmlns:xlink="http://www.w3.org/1999/xlink">
    <defs>
        <path id="2g7ggrwo3c" d="M0 0h7.317v13.17H0z"/>
        <path id="gbf3egk62e" d="M0 0h7.317v13.17H0z"/>
        <rect id="oi00sexsla" x="0" y="0" width="120" height="120" rx="12"/>
    </defs>
    <g fill="none" fill-rule="evenodd">
        <mask id="3gmf28rv2b" fill="#fff">
            <use xlink:href="#oi00sexsla"/>
        </mask>
        <rect stroke="#F0F4F7" x=".5" y=".5" width="119" height="119" rx="12"/>
        <g mask="url(#3gmf28rv2b)">
            <path d="M40 4.992s2.315 25.238 3.17 48.535c-1.498 19.474-.11 35.542.147 38.163l9.67.017c.082-5.1 1.159-20.576 3.28-37.187 3.114-24.398 7.635-51.242 7.635-51.242S43.97-5.133 40 4.992" fill="#2A3756"/>
            <path fill="#FFF" d="m51.64 104.39-6.762-1.7.157-6.592h7.16z"/>
            <path fill="#E2857E" d="m45.366 95.121 7 .001.317-3.415h-7.317z"/>
            <path fill="#2A3756" d="M53.17 110.732H41.952v-2.678l3.057-7.566h6.997l1.166 7.566zM80.488 5.914S76.55 30.912 77.353 53.68c.675 19.152.076 35.422-.182 38.01l-9.67.017c-.082-5.042-1.157-20.338-3.275-36.76-3.115-24.147-7.64-50.728-7.64-50.728s19.931-8.322 23.902 1.695"/>
            <path fill="#FFF" d="m68.847 104.39 6.763-1.7-.158-6.592h-7.16z"/>
            <path fill="#E2857E" d="m75.61 95.121-7 .001-.317-3.415h7.317z"/>
            <path fill="#2A3756" d="M67.805 110.732h11.22v-2.678l-3.057-7.566h-7.004l-1.16 7.566z"/>
            <path d="M58.07-60.932c-4.339.23-9.946-.987-12.743 5.98-2.145 12.562-5.815 61.03-5.815 61.03l41.464.263S79.273-36.33 74.083-54.96c-1.43-5.132-4.661-3.607-6.337-4.708-2.782-.996-5.989-1.457-9.676-1.263" fill="#FFF"/>
            <path fill="#E2857E" d="m85.366 15.297 1.53 5.19 3.767-.51.069-4.855z"/>
            <path d="M74.074-58.537s12.887 6.72 15.832 42.529c1.95 23.727 1.799 32.985 1.799 32.985l-6.837.096S71.506-16.123 70.296-30.852c-.572-6.962 3.778-27.685 3.778-27.685" fill="#FFF"/>
            <g transform="translate(85.854 18.049)">
                <mask id="mi5cy7q62d" fill="#fff">
                    <use xlink:href="#2g7ggrwo3c"/>
                </mask>
                <path d="M7.303 6.382C7.108 2.747 4.97-.108 2.53.003 1.82.035 1.16.317.59.79.02 1.261.52 4.144.845 5.362c.17.634.264 1.34.264 2.083 0 1.59-.433 3.007-1.109 3.93.865 1.16 2.01 1.849 3.234 1.793 2.443-.112 4.265-3.15 4.069-6.786" fill="#E2857E" mask="url(#mi5cy7q62d)"/>
            </g>
            <path fill="#E2857E" d="m34.634 15.297-1.53 5.19-3.767-.51-.069-4.855z"/>
            <path d="M45.438-58.537s-12.887 6.72-15.831 42.529c-1.951 23.727-1.8 32.985-1.8 32.985l6.837.096s13.362-33.196 14.572-47.925c.573-6.962-3.778-27.685-3.778-27.685" fill="#FFF"/>
            <g transform="translate(27.317 18.049)">
                <mask id="po8vvhtkmf" fill="#fff">
                    <use xlink:href="#gbf3egk62e"/>
                </mask>
                <path d="M.014 6.382C.21 2.747 2.346-.108 4.787.003c.711.032 1.37.314 1.94.786.57.472.07 3.355-.254 4.573a8.074 8.074 0 0 0-.265 2.083c0 1.59.433 3.007 1.11 3.93-.865 1.16-2.012 1.849-3.235 1.793-2.443-.112-4.265-3.15-4.069-6.786" fill="#E2857E" mask="url(#po8vvhtkmf)"/>
            </g>
        </g>
        <path d="m44.388 8.737.13.991-3.469.458 11.82 89.496 3.47-.458.131.992-7.931 1.047-.131-.991 3.469-.459-11.82-89.496-3.47.459-.13-.992 7.93-1.047z" fill="#5280E2" fill-rule="nonzero"/>
        <path stroke="#588AF1" stroke-dasharray="2.4" mask="url(#3gmf28rv2b)" d="M36.098 100.244h23.239M36.098 10h23.239"/>
    </g>
</svg>
