<svg width="32" height="32" viewBox="0 0 32 32" xmlns="http://www.w3.org/2000/svg">
    <path d="M16 0C7.168 0 0 7.168 0 16s7.168 16 16 16 16-7.168 16-16S24.832 0 16 0zm2.5 7c.825 0 1.5.675 1.5 1.5s-.675 1.5-1.5 1.5S17 9.325 17 8.5 17.675 7 18.5 7zm2.577 7.874c-1.11-.333-2.55-1.23-3.628-2.76l-.642 3.907 1.861 2.162a.795.795 0 0 1 .204.532v5.454c0 .465-.344.831-.782.831-.438 0-.782-.366-.782-.831v-5.122l-1.736-2.012-.673 3.575c-.078.45-.5.749-.923.649l-4.348-.948a.831.831 0 0 1-.61-.981c.094-.449.5-.732.923-.648l3.582.781 1.501-8.13-2.409.947v1.912c0 .466-.344.831-.782.831-.438 0-.782-.365-.782-.83v-2.495c0-.35.204-.665.517-.782l4.614-1.812c.766-.3 1.595.067 1.955.848 1.016 2.245 2.424 3.076 3.284 3.326a.753.753 0 0 1 .579.748v.066c0 .516-.454.915-.923.782z" fill="#3C63DF" fill-rule="nonzero"/>
</svg>
